<?xml version="1.0" encoding="utf-8"?>
<!-- Generator: Adobe Illustrator 24.1.2, SVG Export Plug-In . SVG Version: 6.00 Build 0)  -->
<svg version="1.1" id="Camada_1" xmlns="http://www.w3.org/2000/svg" xmlns:xlink="http://www.w3.org/1999/xlink" x="0px" y="0px"
	 viewBox="0 0 405.9 313.1" style="enable-background:new 0 0 405.9 313.1;" xml:space="preserve">
<style type="text/css">
	.st0{fill:#FFFFFF;stroke:#00CCD6;stroke-miterlimit:10;}
	.st1{fill:#FFFFFF;}
	.st2{fill:#FFFFFF;stroke:#FFFFFF;stroke-width:6;stroke-miterlimit:10;}
</style>
<g>
	<path class="st0" d="M75.4,165"/>
	<path class="st1" d="M207.2,305.6c-82.6,0-149.8-67-149.8-149.2S124.6,7.2,207.2,7.2S357,74.2,357,156.4
		C356.9,238.8,289.7,305.6,207.2,305.6z M207.2,39.6C142.8,39.6,90.4,92,90.4,156.4s52.4,116.8,116.8,116.8S324,220.8,324,156.4
		S271.6,39.6,207.2,39.6z"/>
	<path class="st2" d="M392.8,96.8c-4.3-16.2-27.1-24.3-67.6-24.1c2.8,4.6,5.2,9.3,7.5,14.2c31.6,0.8,44.8,7.6,46.5,13.5
		c1.6,6.1-6.7,18.8-34.5,35.6c-2.2,1.3-4.4,2.6-6.8,4c-6.4,3.6-13.4,7.2-20.8,10.8c-29,13.8-64.8,26.7-103.3,37.1
		c-34.1,9.2-67.4,15.5-96.8,18.6c-11,1.2-21.4,1.9-31.1,2.1c-1.2,0-2.3,0-3.5,0.1c-38.2,0.4-53.9-7.1-55.6-13.6
		c-1.8-6.5,8-20.8,41.3-39.6c0.6-0.3,1.2-0.7,1.8-1c-0.3-3.6-0.4-7.2-0.4-10.9c0-1.7,0-3.3,0.1-5c-2.9,1.5-5.7,3.1-8.4,4.6
		c-36.3,20.5-52.5,39.2-48,55.6c4.3,16,26.5,24.1,66.1,24.1c1.1,0,2.2,0,3.3,0c3.9,0,7.8-0.2,11.9-0.4c10.5-0.5,21.6-1.5,33.2-2.9
		c27.8-3.5,58.5-9.6,89.8-18c35.6-9.6,69.1-21.3,97.2-34c10.8-4.9,20.9-9.9,30-15c0.1,0,0.1-0.1,0.2-0.1
		C381.1,131.9,397.2,113.2,392.8,96.8z"/>
</g>
</svg>
